<svg width="20" height="21" viewBox="0 0 20 21" fill="none" xmlns="http://www.w3.org/2000/svg">
<path d="M4 21C2.9 21 1.95833 20.6083 1.175 19.825C0.391667 19.0417 0 18.1 0 17V11.6C0 11.0833 0.120833 10.6042 0.3625 10.1625C0.604167 9.72083 0.941667 9.35833 1.375 9.075L9.625 3.725L10.125 4.225C10.4583 4.55833 10.6542 4.95417 10.7125 5.4125C10.7708 5.87083 10.675 6.3 10.425 6.7L9.3 8.5H17C17.2833 8.5 17.5208 8.59583 17.7125 8.7875C17.9042 8.97917 18 9.21667 18 9.5C18 9.78333 17.9042 10.0208 17.7125 10.2125C17.5208 10.4042 17.2833 10.5 17 10.5H10V12H19C19.2833 12 19.5208 12.0958 19.7125 12.2875C19.9042 12.4792 20 12.7167 20 13C20 13.2833 19.9042 13.5208 19.7125 13.7125C19.5208 13.9042 19.2833 14 19 14H10V15.5H18C18.2833 15.5 18.5208 15.5958 18.7125 15.7875C18.9042 15.9792 19 16.2167 19 16.5C19 16.7833 18.9042 17.0208 18.7125 17.2125C18.5208 17.4042 18.2833 17.5 18 17.5H10V19H16C16.2833 19 16.5208 19.0958 16.7125 19.2875C16.9042 19.4792 17 19.7167 17 20C17 20.2833 16.9042 20.5208 16.7125 20.7125C16.5208 20.9042 16.2833 21 16 21H4ZM15.5 7C14.85 7 14.2708 6.74583 13.7625 6.2375C13.2542 5.72917 13 5.15 13 4.5C13 3.91667 13.1917 3.27083 13.575 2.5625C13.9583 1.85417 14.6 1 15.5 0C16.4 1 17.0417 1.85417 17.425 2.5625C17.8083 3.27083 18 3.91667 18 4.5C18 5.15 17.7458 5.72917 17.2375 6.2375C16.7292 6.74583 16.15 7 15.5 7Z" fill="#596576"/>
</svg>
